Coordinates
version=1
nRows=15
nColumns=19
inDegrees=yes

Units are S.I. units (second, meters, Newtons, ...)
If the header above contains a line with 'inDegrees', this indicates whether rotational values are in degrees (yes) or radians (no).

endheader
time	pelvis_tilt	pelvis_list	pelvis_rotation	pelvis_tx	pelvis_ty	pelvis_tz	hip_flexion_r	hip_adduction_r	hip_rotation_r	knee_angle_r	knee_angle_r_beta	ankle_angle_r	hip_flexion_l	hip_adduction_l	hip_rotation_l	knee_angle_l	knee_angle_l_beta	ankle_angle_l
     12.64000000	      1.81159091	      6.62261896	     -0.78371166	      2.30610055	      1.04975186	      0.98306394	    -16.34891228	    -10.04044698	     -7.17798407	     42.03157174	      0.73358932	    -18.16096015	     21.73089663	      8.98699620	     -2.68410507	     17.29509615	      0.30185637	      8.06084775
     12.64666667	      2.09075576	      7.12097547	     -1.12653459	      2.30669422	      1.04631001	      0.98345324	    -15.73217053	    -11.09881776	     -7.11047620	     44.60007568	      0.77841817	    -16.48922138	     21.35698765	      9.36773039	     -3.80636218	     18.13751340	      0.31655933	      7.60343344
     12.65333333	      2.56233801	      7.64027391	     -1.28821711	      2.30727685	      1.04270338	      0.98368098	    -15.39743707	    -12.14914721	     -7.30890250	     47.04885763	      0.82115747	    -14.71168180	     20.77071916	      9.83621164	     -4.75569131	     19.13776180	      0.33401695	      7.12851879
     12.66000000	      3.01435614	      8.17954897	     -1.43059584	      2.30776514	      1.03878906	      0.98386621	    -15.00939063	    -13.18784873	     -7.40796810	     49.46625599	      0.86334904	    -12.82710492	     20.24004390	     10.32940548	     -5.65678135	     20.32027686	      0.35465574	      6.65296641
     12.66666667	      3.45316197	      8.76534229	     -1.53294692	      2.30815835	      1.03462889	      0.98398251	    -14.58670022	    -14.25920994	     -7.49347564	     51.84137203	      0.90480263	    -10.88929384	     19.75689994	     10.88953070	     -6.47695890	     21.66373684	      0.37810354	      6.24554144
     12.67333333	      3.87598982	      9.37991012	     -1.57938168	      2.30844663	      1.03027993	      0.98404024	    -14.13387356	    -15.33966813	     -7.58988346	     54.15246942	      0.94513889	     -8.94970732	     19.34522616	     11.50281224	     -7.17277519	     23.19942501	      0.40490635	      6.02305258
     12.68000000	      4.39582062	     10.03155951	     -1.51409596	      2.30857648	      1.02592445	      0.98393883	    -13.81998733	    -16.42400071	     -7.78760681	     56.35247921	      0.98353630	     -7.06483905	     18.88932002	     12.21200712	     -7.66596073	     24.93843215	      0.43525775	      6.07816501
     12.68666667	      4.67493012	     10.74715601	     -1.48908695	      2.30860731	      1.02123971	      0.98386993	    -13.13506207	    -17.61309795	     -7.87718952	     58.58863084	      1.02256451	     -5.17917415	     18.74050410	     12.96671251	     -8.16347911	     26.80111277	      0.46776766	      6.37325550
     12.69333333	      5.27962859	     11.37717412	     -1.34815551	      2.30843509	      1.01694601	      0.98372126	    -12.88496693	    -18.64683348	     -8.10846659	     60.60781302	      1.05780589	     -3.40652016	     18.28634801	     13.71338761	     -8.32551482	     28.86925630	      0.50386357	      7.09776976
     12.70000000	      5.30766960	     12.14339283	     -1.16573595	      2.30814796	      1.01199778	      0.98348719	    -11.85754746	    -19.88680143	     -8.24891665	     62.76432647	      1.09544415	     -1.70664786	     18.51611971	     14.57675799	     -8.51870572	     31.04282764	      0.54179955	      7.99657337
     12.70666667	      5.88751463	     12.78163716	     -0.96706397	      2.30772614	      1.00787029	      0.98331894	    -11.51563626	    -20.95400963	     -8.53646241	     64.64248089	      1.12822413	     -0.05894868	     18.08937943	     15.36937410	     -8.47906511	     33.21550579	      0.57971994	      9.29937010
     12.71333333	      5.84204102	     13.46846902	     -0.58517094	      2.30706629	      1.00315126	      0.98297039	    -10.37877140	    -22.08084649	     -8.77493177	     66.63906915	      1.16307117	      1.49373148	     18.35087829	     16.25734667	     -8.19889971	     35.43028100	      0.61837506	     10.63762269
     12.72000000	      6.41157109	     14.00024610	     -0.37290624	      2.30626968	      0.99945858	      0.98293818	     -9.89829960	    -23.02379636	     -8.98078858	     68.37127275	      1.19330382	      2.98096054	     17.82231904	     16.97912902	     -7.88434172	     37.47153302	      0.65400163	     12.25060694
     12.72666667	      6.30706493	     14.53952453	      0.15983832	      2.30527283	      0.99527914	      0.98256313	     -8.63581563	    -23.96589677	     -9.25223126	     70.18434243	      1.22494786	      4.40401677	     17.94711675	     17.79869265	     -7.23911884	     39.44755062	      0.68848964	     13.76944860
     12.73333333	      6.48016879	     14.92701299	      0.56568406	      2.30410453	      0.99181785	      0.98245798	     -7.58659024	    -24.70329236	     -9.37059155	     71.82905645	      1.25365353	      5.76015300	     17.62606826	     18.43681536	     -6.58724281	     41.18979660	      0.71889757	     15.34345466
